<?xml version="1.0" encoding="utf-8"?>
<!-- Generator: Adobe Illustrator 24.1.1, SVG Export Plug-In . SVG Version: 6.00 Build 0)  -->
<svg version="1.0" id="Слой_1" xmlns="http://www.w3.org/2000/svg" xmlns:xlink="http://www.w3.org/1999/xlink" x="0px" y="0px"
	 viewBox="0 0 298.1 97.9" enable-background="new 0 0 298.1 97.9" xml:space="preserve">
<path fill="#FF914C" d="M93.8,44.4c-6.6-3.3-12.2-3.1-17.7,0.9c-4,2.9-8.3,3-12.3,0.1c-4.6-3.4-9.5-4.3-14.9-2.3
	c-1.4,0.5-2.6,1.4-3.9,2.2c-4.2,2.8-8.4,3-12.5-0.1c-4.5-3.4-9.5-4-14.7-2.1c-1.5,0.5-2.8,1.6-4.2,2.5c-4.1,2.7-9.5,2.3-13-1.1
	C0.2,44.1-0.1,43,0,42.3C2.2,23.3,14.6,7.4,33.3,2c24.8-7.2,49.8,6.1,58,30.6C92.5,36.2,92.9,40.1,93.8,44.4z"/>
<path fill="#FF914C" d="M0.8,53.8c3.9,2.1,8,3,12.2,1.3c1.7-0.7,3.2-1.6,4.7-2.6c4.4-2.9,8.1-2.9,12.5,0.1
	c6.7,4.6,11.9,4.5,18.7-0.2c3.8-2.7,7.6-2.7,11.7-0.2c1.6,1,3.2,2.1,4.9,2.8c5.2,2,9.8,0.8,14.2-2.4c4.4-3.2,8.8-3,13,0.4
	c0.7,0.6,1.3,1.9,1.2,2.7c-2.9,20.1-13.7,34-33.1,40.1c-24,7.4-49.1-5.4-57.3-28.9C1.8,62.8,1.1,58.4,0,54.2
	C0.3,54,0.5,53.9,0.8,53.8z"/>
<g>
	<path fill="#2A2960" d="M131.4,58.2h-3.5V32.4l-22.1,25.8h-0.8V24.6h3.4v26.3l22.3-26.3h0.8V58.2z"/>
	<path fill="#2A2960" d="M146.1,58.2h-7.2v-25h7.1c2.7,0,4.6,0.6,5.9,1.9c1.1,1.3,1.8,2.7,1.8,4.3c0,2.6-1.1,4.3-3.4,5.1
		c3.2,1.1,4.8,3.4,4.8,6.6C155.3,55.8,152.2,58.2,146.1,58.2z M142.1,36.1v7.7h2.1c1.9,0,3.2-0.2,3.7-0.2c0.6-0.2,1.1-0.5,1.6-1.1
		c0.5-0.6,0.8-1.4,0.8-2.4c0-1-0.3-1.9-0.8-2.6c-0.5-0.6-1.1-1.1-1.8-1.3c-0.6-0.2-1.8-0.2-3.7-0.2H142.1z M142.1,46.7v8.7h3.4
		c1.6,0,2.7-0.2,3.5-0.3c0.6-0.2,1.3-0.6,1.8-1.3c0.5-0.6,0.8-1.6,0.8-2.6c0-1.4-0.5-2.4-1.3-3.2c-0.8-0.8-1.9-1.3-3.4-1.3H142.1z"
		/>
	<path fill="#2A2960" d="M185.6,33.2v24.9h-3.2v-4.3c-1.3,1.6-2.9,2.9-4.5,3.7c-1.6,0.8-3.5,1.3-5.5,1.3c-3.5,0-6.6-1.3-9-3.8
		c-2.6-2.6-3.7-5.6-3.7-9.3c0-3.5,1.3-6.6,3.8-9.1c2.6-2.6,5.6-3.8,9.1-3.8c2.1,0,3.8,0.5,5.6,1.3c1.6,0.8,3,2.2,4.3,3.8v-4.6
		L185.6,33.2z M172.9,35.8c-1.8,0-3.4,0.5-5,1.3c-1.4,0.8-2.7,2.1-3.5,3.7c-1,1.6-1.3,3.2-1.3,5s0.5,3.4,1.3,5
		c1,1.6,2.1,2.9,3.7,3.7c1.4,1,3.2,1.3,4.8,1.3c1.8,0,3.4-0.5,5-1.3c1.6-1,2.7-2.1,3.7-3.5c0.8-1.4,1.3-3.2,1.3-5.1
		c0-2.9-1-5.3-2.9-7.2C178,36.8,175.6,35.8,172.9,35.8z"/>
	<path fill="#2A2960" d="M210.6,46.2h-14.4v12H193v-25h3.2v9.9h14.4v-9.9h3.2v24.9h-3.2V46.2z"/>
	<path fill="#2A2960" d="M232.6,32.6c3.8,0,7.1,1.4,9.5,4.2c2.2,2.6,3.4,5.6,3.4,9c0,3.5-1.3,6.6-3.7,9.1c-2.4,2.6-5.5,3.8-9.3,3.8
		c-3.8,0-6.9-1.3-9.3-3.8c-2.4-2.6-3.7-5.6-3.7-9.1c0-3.5,1.1-6.4,3.4-9C225.7,34,228.7,32.6,232.6,32.6z M232.6,35.8
		c-2.7,0-5,1-6.9,2.9c-1.9,1.9-2.9,4.3-2.9,7.2c0,1.8,0.5,3.5,1.3,5c0.8,1.6,2.1,2.7,3.5,3.7c1.4,0.8,3,1.3,4.8,1.3
		c1.8,0,3.4-0.5,4.8-1.3c1.4-0.8,2.7-2.1,3.5-3.7c0.8-1.6,1.3-3.2,1.3-5c0-2.7-1-5.1-2.9-7.2C237.5,36.8,235.3,35.8,232.6,35.8z"/>
	<path fill="#2A2960" d="M258.7,58.2h-7.2v-25h7.1c2.7,0,4.6,0.6,5.9,1.9c1.1,1.3,1.8,2.7,1.8,4.3c0,2.6-1.1,4.3-3.4,5.1
		c3.2,1.1,4.8,3.4,4.8,6.6C267.8,55.8,264.8,58.2,258.7,58.2z M254.7,36.1v7.7h2.1c1.9,0,3.2-0.2,3.7-0.2c0.6-0.2,1.1-0.5,1.6-1.1
		c0.5-0.6,0.8-1.4,0.8-2.4c0-1-0.3-1.9-0.8-2.6c-0.5-0.6-1.1-1.1-1.8-1.3c-0.6-0.2-1.8-0.2-3.7-0.2H254.7z M254.7,46.7v8.7h3.4
		c1.6,0,2.7-0.2,3.5-0.3c0.6-0.2,1.3-0.6,1.8-1.3c0.5-0.6,0.8-1.6,0.8-2.6c0-1.4-0.5-2.4-1.3-3.2c-0.8-0.8-1.9-1.3-3.4-1.3H254.7z"
		/>
	<path fill="#2A2960" d="M298.1,33.2v24.9h-3.2v-4.3c-1.3,1.6-2.9,2.9-4.5,3.7c-1.6,0.8-3.5,1.3-5.5,1.3c-3.5,0-6.6-1.3-9-3.8
		c-2.6-2.6-3.7-5.6-3.7-9.3c0-3.5,1.3-6.6,3.8-9.1c2.6-2.6,5.6-3.8,9.1-3.8c2.1,0,3.8,0.5,5.6,1.3c1.6,0.8,3,2.2,4.3,3.8v-4.6
		L298.1,33.2z M285.3,35.8c-1.8,0-3.4,0.5-5,1.3c-1.4,0.8-2.7,2.1-3.5,3.7c-1,1.6-1.3,3.2-1.3,5s0.5,3.4,1.3,5
		c1,1.6,2.1,2.9,3.7,3.7c1.4,1,3.2,1.3,4.8,1.3c1.8,0,3.4-0.5,5-1.3c1.6-1,2.7-2.1,3.7-3.5c0.8-1.4,1.3-3.2,1.3-5.1
		c0-2.9-1-5.3-2.9-7.2C290.4,36.8,288.2,35.8,285.3,35.8z"/>
	<path fill="#2A2960" d="M104.9,62.6h3.4v14.1h17.2V62.6h3.4v33.7h-3.4V80.1h-17.3v16.2h-3.2V62.6z"/>
	<path fill="#2A2960" d="M161.1,71.4v24.9h-3.2v-4.3c-1.3,1.6-2.9,2.9-4.5,3.7c-1.6,0.8-3.5,1.3-5.5,1.3c-3.5,0-6.6-1.3-9-3.8
		c-2.6-2.6-3.7-5.6-3.7-9.3c0-3.5,1.3-6.6,3.8-9.1c2.6-2.6,5.6-3.8,9.1-3.8c2.1,0,3.8,0.5,5.6,1.3c1.6,0.8,3,2.2,4.3,3.8v-4.6
		L161.1,71.4z M148.4,73.8c-1.8,0-3.4,0.5-5,1.3c-1.4,0.8-2.7,2.1-3.5,3.7c-1,1.6-1.3,3.2-1.3,5c0,1.8,0.5,3.4,1.3,5
		c1,1.6,2.1,2.9,3.7,3.7c1.4,1,3.2,1.3,4.8,1.3c1.8,0,3.4-0.5,5-1.3c1.6-1,2.7-2.1,3.7-3.5c0.8-1.4,1.3-3.2,1.3-5.1
		c0-2.9-1-5.3-2.9-7.2C153.4,74.8,151.1,73.8,148.4,73.8z"/>
	<path fill="#2A2960" d="M175.5,96.2h-7.2V71.4h7.1c2.7,0,4.6,0.6,5.9,1.9c1.1,1.3,1.8,2.7,1.8,4.3c0,2.6-1.1,4.3-3.4,5.1
		c3.2,1.1,4.8,3.4,4.8,6.6C184.6,94,181.6,96.2,175.5,96.2z M171.5,74.1v7.7h2.1c1.9,0,3.2-0.2,3.7-0.2c0.6-0.2,1.1-0.5,1.6-1.1
		c0.5-0.6,0.8-1.4,0.8-2.4c0-1-0.3-1.9-0.8-2.6c-0.5-0.6-1.1-1.1-1.8-1.3c-0.6-0.2-1.8-0.2-3.7-0.2H171.5z M171.5,84.9v8.7h3.4
		c1.6,0,2.7-0.2,3.5-0.3c0.6-0.2,1.3-0.6,1.8-1.3c0.5-0.6,0.8-1.6,0.8-2.6c0-1.4-0.5-2.4-1.3-3.2s-1.9-1.3-3.4-1.3H171.5z"/>
	<path fill="#2A2960" d="M214.9,71.4v24.9h-3.2v-4.3c-1.3,1.6-2.9,2.9-4.5,3.7c-1.6,0.8-3.5,1.3-5.5,1.3c-3.5,0-6.6-1.3-9-3.8
		c-2.6-2.6-3.7-5.6-3.7-9.3c0-3.5,1.3-6.6,3.8-9.1c2.6-2.6,5.6-3.8,9.1-3.8c2.1,0,3.8,0.5,5.6,1.3c1.6,0.8,3,2.2,4.3,3.8v-4.6
		L214.9,71.4z M202.3,73.8c-1.8,0-3.4,0.5-5,1.3c-1.4,0.8-2.7,2.1-3.5,3.7c-1,1.6-1.3,3.2-1.3,5c0,1.8,0.5,3.4,1.3,5
		c1,1.6,2.1,2.9,3.7,3.7c1.4,1,3.2,1.3,4.8,1.3c1.8,0,3.4-0.5,5-1.3c1.6-1,2.7-2.1,3.7-3.5c0.8-1.4,1.3-3.2,1.3-5.1
		c0-2.9-1-5.3-2.9-7.2C207.2,74.8,205,73.8,202.3,73.8z"/>
	<path fill="#2A2960" d="M225.3,71.4v18.4l18.3-18.4h0.3v24.9h-3.2V78l-18.1,18.3h-0.3V71.4H225.3z M224.9,61.3h3
		c0.5,0.8,1.3,1.4,2.1,1.8c0.8,0.3,1.9,0.6,3,0.6c1.1,0,2.2-0.2,2.9-0.5c0.8-0.3,1.4-1,2.1-1.9h2.9c-0.3,1.4-1.1,2.6-2.6,3.5
		c-1.4,1-3.2,1.4-5.5,1.4c-2.2,0-4-0.5-5.5-1.4C226.1,63.9,225.3,62.7,224.9,61.3z"/>
	<g opacity="0.98">
		<path opacity="0.98" fill="#654321" enable-background="new    " d="M105.1,19.9V1h9.9v3.5h-6.3v3.7h0.8c1.6,0,2.9,0.2,3.8,0.5
			c1,0.3,1.9,1,2.6,1.9c0.6,1,1,2.1,1,3.5c0,1.3-0.3,2.4-0.8,3.2c-0.5,0.8-1.3,1.4-2.1,1.9c-1,0.5-2.1,0.8-3.7,0.8h-5.3V19.9z
			 M108.6,11.3v5.1h1c1.6,0,2.7-0.2,3.2-0.6c0.5-0.5,0.6-1,0.6-1.8c0-1.8-1.3-2.7-4-2.7H108.6z"/>
		<path opacity="0.98" fill="#654321" enable-background="new    " d="M123.2,19.9h-3.5V5.8h3.5v5.6h1.9c0.5-1.9,1.3-3.4,2.7-4.3
			c1.4-1.1,2.9-1.6,4.5-1.6c2.1,0,3.8,0.6,5.3,2.1c1.4,1.4,2.2,3.2,2.2,5.3s-0.6,3.7-2.1,5.1c-1.4,1.4-3.2,2.2-5.3,2.2
			c-1.8,0-3.2-0.5-4.5-1.6c-1.3-1.1-2.2-2.4-2.6-4h-1.9v5.3H123.2z M136,12.9c0-1.1-0.3-2.2-1.1-2.9c-0.6-0.8-1.6-1.1-2.7-1.1
			c-1.1,0-2.1,0.3-2.7,1.1c-0.6,0.8-1.1,1.8-1.1,2.9c0,1.3,0.3,2.2,1.1,3c0.8,0.8,1.6,1.1,2.7,1.1c1.1,0,1.9-0.3,2.7-1.1
			S136,14.2,136,12.9z"/>
		<path opacity="0.98" fill="#654321" enable-background="new    " d="M146,5.8v1.6c0.6-0.6,1.3-1.1,2.1-1.4
			c0.8-0.3,1.6-0.5,2.4-0.5c1.8,0,3.4,0.6,4.6,2.1s1.9,3.2,1.9,5.3s-0.6,3.8-1.9,5.3c-1.3,1.4-2.9,2.1-4.6,2.1
			c-0.8,0-1.6-0.2-2.2-0.5s-1.4-0.8-2.1-1.4v6.6h-3.5V5.8H146z M149.7,8.7c-1.1,0-2.1,0.3-2.7,1.1c-0.8,0.8-1.1,1.8-1.1,2.9
			c0,1.3,0.3,2.2,1.1,3c0.8,0.8,1.6,1.1,2.7,1.1c1.1,0,1.9-0.3,2.7-1.1c0.8-0.8,1.1-1.8,1.1-3c0-1.1-0.3-2.2-1.1-2.9
			C151.6,9.2,150.8,8.7,149.7,8.7z"/>
		<path opacity="0.98" fill="#654321" enable-background="new    " d="M166.5,5.5c1.3,0,2.6,0.3,3.7,1c1.1,0.6,2.1,1.6,2.7,2.7
			c0.6,1.1,1,2.4,1,3.7s-0.3,2.6-1,3.7c-0.6,1.1-1.6,2.1-2.7,2.7c-1.1,0.6-2.4,1-3.7,1c-2.1,0-3.7-0.6-5.1-2.1
			c-1.4-1.4-2.1-3.2-2.1-5.1c0-2.2,0.8-4,2.4-5.5C163,6.1,164.6,5.5,166.5,5.5z M166.5,8.9c-1.1,0-1.9,0.3-2.7,1.1
			c-0.8,0.8-1.1,1.8-1.1,2.9c0,1.3,0.3,2.2,1.1,2.9c0.6,0.8,1.6,1.1,2.7,1.1c1.1,0,2.1-0.3,2.7-1.1c0.8-0.8,1.1-1.8,1.1-2.9
			s-0.3-2.2-1.1-2.9C168.6,9.2,167.6,8.9,166.5,8.9z"/>
	</g>
</g>
</svg>
