<svg width="304" height="102" viewBox="0 0 304 102" fill="none" xmlns="http://www.w3.org/2000/svg">
<path d="M136.5 57.2H133V31.4L110.9 57.2H110.1V23.6H113.5V49.9L135.8 23.6H136.6V57.2H136.5Z" fill="#2A2960"/>
<path d="M151.2 57.2H144V32.2H151.1C153.8 32.2 155.7 32.8 157 34.1C158.1 35.4 158.8 36.8 158.8 38.4C158.8 41 157.7 42.7 155.4 43.5C158.6 44.6 160.2 46.9 160.2 50.1C160.4 54.8 157.3 57.2 151.2 57.2ZM147.2 35.1V42.8H149.3C151.2 42.8 152.5 42.6 153 42.6C153.6 42.4 154.1 42.1 154.6 41.5C155.1 40.9 155.4 40.1 155.4 39.1C155.4 38.1 155.1 37.2 154.6 36.5C154.1 35.9 153.5 35.4 152.8 35.2C152.2 35 151 35 149.1 35H147.2V35.1ZM147.2 45.7V54.4H150.6C152.2 54.4 153.3 54.2 154.1 54.1C154.7 53.9 155.4 53.5 155.9 52.8C156.4 52.2 156.7 51.2 156.7 50.2C156.7 48.8 156.2 47.8 155.4 47C154.6 46.2 153.5 45.7 152 45.7H147.2V45.7Z" fill="#2A2960"/>
<path d="M190.7 32.2V57.1H187.5V52.8C186.2 54.4 184.6 55.7 183 56.5C181.4 57.3 179.5 57.8 177.5 57.8C174 57.8 170.9 56.5 168.5 54C165.9 51.4 164.8 48.4 164.8 44.7C164.8 41.2 166.1 38.1 168.6 35.6C171.2 33 174.2 31.8 177.7 31.8C179.8 31.8 181.5 32.3 183.3 33.1C184.9 33.9 186.3 35.3 187.6 36.9V32.3L190.7 32.2ZM178 34.8C176.2 34.8 174.6 35.3 173 36.1C171.6 36.9 170.3 38.2 169.5 39.8C168.5 41.4 168.2 43 168.2 44.8C168.2 46.6 168.7 48.2 169.5 49.8C170.5 51.4 171.6 52.7 173.2 53.5C174.6 54.5 176.4 54.8 178 54.8C179.8 54.8 181.4 54.3 183 53.5C184.6 52.5 185.7 51.4 186.7 50C187.5 48.6 188 46.8 188 44.9C188 42 187 39.6 185.1 37.7C183.1 35.8 180.7 34.8 178 34.8Z" fill="#2A2960"/>
<path d="M215.7 45.2H201.3V57.2H198.1V32.2H201.3V42.1H215.7V32.2H218.9V57.1H215.7V45.2Z" fill="#2A2960"/>
<path d="M237.7 31.6C241.5 31.6 244.8 33 247.2 35.8C249.4 38.4 250.6 41.4 250.6 44.8C250.6 48.3 249.3 51.4 246.9 53.9C244.5 56.5 241.4 57.7 237.6 57.7C233.8 57.7 230.7 56.4 228.3 53.9C225.9 51.3 224.6 48.3 224.6 44.8C224.6 41.3 225.7 38.4 228 35.8C230.8 33 233.8 31.6 237.7 31.6ZM237.7 34.8C235 34.8 232.7 35.8 230.8 37.7C228.9 39.6 227.9 42 227.9 44.9C227.9 46.7 228.4 48.4 229.2 49.9C230 51.5 231.3 52.6 232.7 53.6C234.1 54.4 235.7 54.9 237.5 54.9C239.3 54.9 240.9 54.4 242.3 53.6C243.7 52.8 245 51.5 245.8 49.9C246.6 48.3 247.1 46.7 247.1 44.9C247.1 42.2 246.1 39.8 244.2 37.7C242.6 35.8 240.4 34.8 237.7 34.8Z" fill="#2A2960"/>
<path d="M263.8 57.2H256.6V32.2H263.7C266.4 32.2 268.3 32.8 269.6 34.1C270.7 35.4 271.4 36.8 271.4 38.4C271.4 41 270.3 42.7 268 43.5C271.2 44.6 272.8 46.9 272.8 50.1C272.9 54.8 269.9 57.2 263.8 57.2ZM259.8 35.1V42.8H261.9C263.8 42.8 265.1 42.6 265.6 42.6C266.2 42.4 266.7 42.1 267.2 41.5C267.7 40.9 268 40.1 268 39.1C268 38.1 267.7 37.2 267.2 36.5C266.7 35.9 266.1 35.4 265.4 35.2C264.8 35 263.6 35 261.7 35H259.8V35.1ZM259.8 45.7V54.4H263.2C264.8 54.4 265.9 54.2 266.7 54.1C267.3 53.9 268 53.5 268.5 52.8C269 52.2 269.3 51.2 269.3 50.2C269.3 48.8 268.8 47.8 268 47C267.2 46.2 266.1 45.7 264.6 45.7H259.8V45.7Z" fill="#2A2960"/>
<path d="M303.2 32.2V57.1H300V52.8C298.7 54.4 297.1 55.7 295.5 56.5C293.9 57.3 292 57.8 290 57.8C286.5 57.8 283.4 56.5 281 54C278.4 51.4 277.3 48.4 277.3 44.7C277.3 41.2 278.6 38.1 281.1 35.6C283.7 33 286.7 31.8 290.2 31.8C292.3 31.8 294 32.3 295.8 33.1C297.4 33.9 298.8 35.3 300.1 36.9V32.3L303.2 32.2ZM290.4 34.8C288.6 34.8 287 35.3 285.4 36.1C284 36.9 282.7 38.2 281.9 39.8C280.9 41.4 280.6 43 280.6 44.8C280.6 46.6 281.1 48.2 281.9 49.8C282.9 51.4 284 52.7 285.6 53.5C287 54.5 288.8 54.8 290.4 54.8C292.2 54.8 293.8 54.3 295.4 53.5C297 52.5 298.1 51.4 299.1 50C299.9 48.6 300.4 46.8 300.4 44.9C300.4 42 299.4 39.6 297.5 37.7C295.5 35.8 293.3 34.8 290.4 34.8Z" fill="#2A2960"/>
<path d="M110 61.6H113.4V75.7H130.6V61.6H134V95.3H130.6V79.1H113.3V95.3H110.1V61.6H110Z" fill="#2A2960"/>
<path d="M166.2 70.4V95.3H163V91C161.7 92.6 160.1 93.9 158.5 94.7C156.9 95.5 155 96 153 96C149.5 96 146.4 94.7 144 92.2C141.4 89.6 140.3 86.6 140.3 82.9C140.3 79.4 141.6 76.3 144.1 73.8C146.7 71.2 149.7 70 153.2 70C155.3 70 157 70.5 158.8 71.3C160.4 72.1 161.8 73.5 163.1 75.1V70.5L166.2 70.4ZM153.5 72.8C151.7 72.8 150.1 73.3 148.5 74.1C147.1 74.9 145.8 76.2 145 77.8C144 79.4 143.7 81 143.7 82.8C143.7 84.6 144.2 86.2 145 87.8C146 89.4 147.1 90.7 148.7 91.5C150.1 92.5 151.9 92.8 153.5 92.8C155.3 92.8 156.9 92.3 158.5 91.5C160.1 90.5 161.2 89.4 162.2 88C163 86.6 163.5 84.8 163.5 82.9C163.5 80 162.5 77.6 160.6 75.7C158.5 73.8 156.2 72.8 153.5 72.8Z" fill="#2A2960"/>
<path d="M180.6 95.2H173.4V70.4H180.5C183.2 70.4 185.1 71 186.4 72.3C187.5 73.6 188.2 75 188.2 76.6C188.2 79.2 187.1 80.9 184.8 81.7C188 82.8 189.6 85.1 189.6 88.3C189.7 93 186.7 95.2 180.6 95.2ZM176.6 73.1V80.8H178.7C180.6 80.8 181.9 80.6 182.4 80.6C183 80.4 183.5 80.1 184 79.5C184.5 78.9 184.8 78.1 184.8 77.1C184.8 76.1 184.5 75.2 184 74.5C183.5 73.9 182.9 73.4 182.2 73.2C181.6 73 180.4 73 178.5 73H176.6V73.1ZM176.6 83.9V92.6H180C181.6 92.6 182.7 92.4 183.5 92.3C184.1 92.1 184.8 91.7 185.3 91C185.8 90.4 186.1 89.4 186.1 88.4C186.1 87 185.6 86 184.8 85.2C184 84.4 182.9 83.9 181.4 83.9H176.6V83.9Z" fill="#2A2960"/>
<path d="M220 70.4V95.3H216.8V91C215.5 92.6 213.9 93.9 212.3 94.7C210.7 95.5 208.8 96 206.8 96C203.3 96 200.2 94.7 197.8 92.2C195.2 89.6 194.1 86.6 194.1 82.9C194.1 79.4 195.4 76.3 197.9 73.8C200.5 71.2 203.5 70 207 70C209.1 70 210.8 70.5 212.6 71.3C214.2 72.1 215.6 73.5 216.9 75.1V70.5L220 70.4ZM207.4 72.8C205.6 72.8 204 73.3 202.4 74.1C201 74.9 199.7 76.2 198.9 77.8C197.9 79.4 197.6 81 197.6 82.8C197.6 84.6 198.1 86.2 198.9 87.8C199.9 89.4 201 90.7 202.6 91.5C204 92.5 205.8 92.8 207.4 92.8C209.2 92.8 210.8 92.3 212.4 91.5C214 90.5 215.1 89.4 216.1 88C216.9 86.6 217.4 84.8 217.4 82.9C217.4 80 216.4 77.6 214.5 75.7C212.3 73.8 210.1 72.8 207.4 72.8Z" fill="#2A2960"/>
<path d="M230.4 70.4V88.8L248.7 70.4H249V95.3H245.8V77L227.7 95.3H227.4V70.4H230.4ZM230 60.3H233C233.5 61.1 234.3 61.7 235.1 62.1C235.9 62.4 237 62.7 238.1 62.7C239.2 62.7 240.3 62.5 241 62.2C241.8 61.9 242.4 61.2 243.1 60.3H246C245.7 61.7 244.9 62.9 243.4 63.8C242 64.8 240.2 65.2 237.9 65.2C235.7 65.2 233.9 64.7 232.4 63.8C231.2 62.9 230.4 61.7 230 60.3Z" fill="#2A2960"/>
<g opacity="0.98">
<path opacity="0.98" d="M110.2 18.9V0H120.1V3.5H113.8V7.2H114.6C116.2 7.2 117.5 7.4 118.4 7.7C119.4 8 120.3 8.7 121 9.6C121.6 10.6 122 11.7 122 13.1C122 14.4 121.7 15.5 121.2 16.3C120.7 17.1 119.9 17.7 119.1 18.2C118.1 18.7 117 19 115.4 19H110.1V18.9H110.2ZM113.7 10.3V15.4H114.7C116.3 15.4 117.4 15.2 117.9 14.8C118.4 14.3 118.5 13.8 118.5 13C118.5 11.2 117.2 10.3 114.5 10.3H113.7V10.3Z" fill="#654321"/>
<path opacity="0.98" d="M128.3 18.9H124.8V4.8H128.3V10.4H130.2C130.7 8.5 131.5 7 132.9 6.1C134.3 5 135.8 4.5 137.4 4.5C139.5 4.5 141.2 5.1 142.7 6.6C144.1 8 144.9 9.8 144.9 11.9C144.9 14 144.3 15.6 142.8 17C141.4 18.4 139.6 19.2 137.5 19.2C135.7 19.2 134.3 18.7 133 17.6C131.7 16.5 130.8 15.2 130.4 13.6H128.5V18.9H128.3ZM141.1 11.9C141.1 10.8 140.8 9.7 140 9C139.4 8.2 138.4 7.9 137.3 7.9C136.2 7.9 135.2 8.2 134.6 9C134 9.8 133.5 10.8 133.5 11.9C133.5 13.2 133.8 14.1 134.6 14.9C135.4 15.7 136.2 16 137.3 16C138.4 16 139.2 15.7 140 14.9C140.8 14.1 141.1 13.2 141.1 11.9Z" fill="#654321"/>
<path opacity="0.98" d="M151.1 4.8V6.4C151.7 5.8 152.4 5.3 153.2 5C154 4.7 154.8 4.5 155.6 4.5C157.4 4.5 159 5.1 160.2 6.6C161.4 8.1 162.1 9.8 162.1 11.9C162.1 14 161.5 15.7 160.2 17.2C158.9 18.6 157.3 19.3 155.6 19.3C154.8 19.3 154 19.1 153.4 18.8C152.8 18.5 152 18 151.3 17.4V24H147.8V4.8H151.1ZM154.8 7.7C153.7 7.7 152.7 8 152.1 8.8C151.3 9.6 151 10.6 151 11.7C151 13 151.3 13.9 152.1 14.7C152.9 15.5 153.7 15.8 154.8 15.8C155.9 15.8 156.7 15.5 157.5 14.7C158.3 13.9 158.6 12.9 158.6 11.7C158.6 10.6 158.3 9.5 157.5 8.8C156.7 8.2 155.9 7.7 154.8 7.7Z" fill="#654321"/>
<path opacity="0.98" d="M171.6 4.5C172.9 4.5 174.2 4.8 175.3 5.5C176.4 6.1 177.4 7.1 178 8.2C178.6 9.3 179 10.6 179 11.9C179 13.2 178.7 14.5 178 15.6C177.4 16.7 176.4 17.7 175.3 18.3C174.2 18.9 172.9 19.3 171.6 19.3C169.5 19.3 167.9 18.7 166.5 17.2C165.1 15.8 164.4 14 164.4 12.1C164.4 9.9 165.2 8.1 166.8 6.6C168.1 5.1 169.7 4.5 171.6 4.5ZM171.6 7.9C170.5 7.9 169.7 8.2 168.9 9C168.1 9.8 167.8 10.8 167.8 11.9C167.8 13.2 168.1 14.1 168.9 14.8C169.5 15.6 170.5 15.9 171.6 15.9C172.7 15.9 173.7 15.6 174.3 14.8C175.1 14 175.4 13 175.4 11.9C175.4 10.8 175.1 9.7 174.3 9C173.7 8.2 172.7 7.9 171.6 7.9Z" fill="#654321"/>
</g>
<g clip-path="url(#clip0)">
<path d="M93.9 44.4C87.3 41.1 81.7 41.3 76.2 45.3C72.2 48.2 67.9 48.3 63.9 45.4C59.3 42 54.4 41.1 49 43.1C47.6 43.6 46.4 44.5 45.1 45.3C40.9 48.1 36.7 48.3 32.6 45.2C28.1 41.8 23.1 41.2 17.9 43.1C16.4 43.6 15.1 44.7 13.7 45.6C9.60001 48.3 4.20001 47.9 0.700009 44.5C0.300009 44.1 8.92021e-06 43 0.100009 42.3C2.30001 23.3 14.7 7.4 33.4 2C58.2 -5.2 83.2 8.1 91.4 32.6C92.6 36.2 93 40.1 93.9 44.4Z" fill="#FF914C"/>
<path d="M0.9 53.8C4.8 55.9 8.9 56.8 13.1 55.1C14.8 54.4 16.3 53.5 17.8 52.5C22.2 49.6 25.9 49.6 30.3 52.6C37 57.2 42.2 57.1 49 52.4C52.8 49.7 56.6 49.7 60.7 52.2C62.3 53.2 63.9 54.3 65.6 55C70.8 57 75.4 55.8 79.8 52.6C84.2 49.4 88.6 49.6 92.8 53C93.5 53.6 94.1 54.9 94 55.7C91.1 75.8 80.3 89.7 60.9 95.8C36.9 103.2 11.8 90.4 3.6 66.9C1.9 62.8 1.1 57.1 0 52.9C0 49.6 0.6 53.9 0.9 53.8Z" fill="#FF914C"/>
<path d="M93.9 44.4C87.3 41.1 81.7 41.3 76.2 45.3C72.2 48.2 67.9 48.3 63.9 45.4C59.3 42 54.4 41.1 49 43.1C47.6 43.6 46.4 44.5 45.1 45.3C40.9 48.1 36.7 48.3 32.6 45.2C28.1 41.8 23.1 41.2 17.9 43.1C16.4 43.6 15.1 44.7 13.7 45.6C9.60001 48.3 4.20001 47.9 0.700011 44.5C0.300011 44.1 1.12318e-05 43 0.100011 42.3V46C-0.0999888 47 0.300011 47.8 0.700011 48.2C4.20001 51.6 9.60001 52 13.7 49.3C15.1 48.4 16.4 47.3 17.9 46.8C23.1 44.9 28.1 45.5 32.6 48.9C36.7 52 40.9 51.8 45.1 49C46.4 48.2 47.6 47.3 49 46.8C54.4 44.8 59.3 45.7 63.9 49.1C67.9 52 72.2 51.9 76.2 49C81.7 45 87.3 44.8 93.9 48.1V44.4V44.4Z" fill="url(#paint0_linear)"/>
<path d="M93.9 48.2C87.3 44.9 81.7 45.1 76.2 49.1C72.2 52 68.5 52 64.4 49.6C59.8 45.8 54.4 44.9 49 46.9C47.6 47.4 46.4 48.3 45.1 49.1C40.9 51.9 37.1 52 33.1 49.4C28.4 45.4 23.1 45 17.9 46.9C16.4 47.4 15.1 48.5 13.7 49.4C9.60001 52.1 4.20001 51.7 0.700006 48.3C0.400006 47.9 0.200006 47.6 0.100006 46.9L0.200006 50.7C0.100006 51.4 0.500006 53.4 0.900006 53.8C4.90001 56.2 10 56.8 14.1 54.7C15.6 54 15.9 53.8 17.1 53C21.4 49.9 25.4 49 30.9 53C35.3 56.3 41.1 57 45.5 54.5C47.1 53.8 48.3 52.9 49.5 52.1C54.7 49 57.6 50.2 63.9 54.1C68.5 56.7 73 56.5 77.2 54.2C82.9 50.8 89.1 47.6 94 54.8V48.2H93.9Z" fill="url(#paint1_linear)"/>
</g>
<defs>
<linearGradient id="paint0_linear" x1="46.9149" y1="65.589" x2="46.9329" y2="33.3457" gradientUnits="userSpaceOnUse">
<stop stop-color="white"/>
<stop offset="0.7986" stop-color="#0900BA"/>
</linearGradient>
<linearGradient id="paint1_linear" x1="46.9287" y1="71.7814" x2="46.9486" y2="36.1303" gradientUnits="userSpaceOnUse">
<stop stop-color="white" stop-opacity="0.5"/>
<stop offset="1" stop-color="#0900BA"/>
</linearGradient>
<clipPath id="clip0">
<rect width="94" height="97.8" fill="white"/>
</clipPath>
</defs>
</svg>
